<?xml version="1.0" encoding="utf-8"?>
<!-- Generator: Adobe Illustrator 21.1.0, SVG Export Plug-In . SVG Version: 6.00 Build 0)  -->
<svg version="1.1" id="Capa_1" xmlns="http://www.w3.org/2000/svg" xmlns:xlink="http://www.w3.org/1999/xlink" x="0px" y="0px"
	 viewBox="0 0 198 141.4" style="enable-background:new 0 0 198 141.4;" xml:space="preserve">
<style type="text/css">
	.st0{fill:#666666;}
</style>
<path class="st0" d="M47.3,79.4H130l-19.9,19.9c-1.7,1.7-2.5,3.7-2.5,6c0,4.3,3.5,8.6,8.6,8.6c2.3,0,4.3-0.9,6-2.5L156.4,77
	c1.4-1.4,2.9-3.2,2.9-6.3c0-3.1-1.2-4.6-2.8-6.2l-34.3-34.4c-1.6-1.6-3.7-2.5-6-2.5c-5.1,0-8.6,4.4-8.6,8.6c0,2.2,0.8,4.3,2.5,6
	L130,62.1H47.3c-4.7,0-8.6,3.8-8.6,8.6S42.6,79.4,47.3,79.4z"/>
</svg>
