<?xml version="1.0" encoding="utf-8"?>
<!-- Generator: Adobe Illustrator 21.1.0, SVG Export Plug-In . SVG Version: 6.00 Build 0)  -->
<svg version="1.1" id="Capa_1" xmlns="http://www.w3.org/2000/svg" xmlns:xlink="http://www.w3.org/1999/xlink" x="0px" y="0px"
	 viewBox="0 0 198 141.4" style="enable-background:new 0 0 198 141.4;" xml:space="preserve">
<style type="text/css">
	.st0{fill:#666666;}
</style>
<path class="st0" d="M90.4,19.1v82.6L70.5,81.8c-1.7-1.7-3.7-2.5-6-2.5c-4.3,0-8.6,3.5-8.6,8.6c0,2.3,0.9,4.3,2.5,6l34.3,34.3
	c1.4,1.4,3.2,2.9,6.3,2.9c3.1,0,4.6-1.2,6.2-2.8l34.4-34.3c1.6-1.6,2.5-3.7,2.5-6c0-5.1-4.4-8.6-8.6-8.6c-2.2,0-4.3,0.8-6,2.5
	l-19.9,19.9V19.1c0-4.7-3.8-8.6-8.6-8.6S90.4,14.3,90.4,19.1z"/>
</svg>
