<?xml version="1.0" encoding="utf-8"?>
<!-- Generator: Adobe Illustrator 21.1.0, SVG Export Plug-In . SVG Version: 6.00 Build 0)  -->
<svg version="1.1" id="Capa_1" xmlns="http://www.w3.org/2000/svg" xmlns:xlink="http://www.w3.org/1999/xlink" x="0px" y="0px"
	 viewBox="0 0 46 42.9" style="enable-background:new 0 0 46 42.9;" xml:space="preserve">
<style type="text/css">
	.st0{fill:#666666;}
</style>
<g>
	<path class="st0" d="M29.5,21.1l-2.2-6.3c-0.3-0.9-0.6-2.4-0.6-3.4V7c0.3-0.2,0.5-0.6,0.5-1V4.6c0-0.6-0.5-1.2-1.2-1.2h-7.8
		c-0.6,0-1.2,0.5-1.2,1.2v1.5c0,0.4,0.2,0.8,0.5,1v4.5c0,0.9-0.3,2.5-0.6,3.4L15,21.1c-0.3,1-0.6,2.6-0.6,3.7v13.8
		c0,1.2,1,2.2,2.2,2.2h11.3c1.2,0,2.2-1,2.2-2.2V24.8C30.1,23.8,29.9,22.1,29.5,21.1z M18.1,4.6c0-0.1,0.1-0.3,0.3-0.3h7.8
		c0.1,0,0.3,0.1,0.3,0.3v1.5c0,0.1-0.1,0.3-0.3,0.3h-7.8c-0.1,0-0.3-0.1-0.3-0.3V4.6z M29.3,38.6c0,0.7-0.6,1.4-1.4,1.4H16.6
		c-0.7,0-1.4-0.6-1.4-1.4V24.8c0-0.9,0.3-2.5,0.6-3.4l2.2-6.3c0.3-1,0.6-2.6,0.6-3.7V7.2h7.2v4.3c0,1,0.3,2.7,0.6,3.7l2.2,6.3
		c0.3,0.9,0.6,2.4,0.6,3.4L29.3,38.6z"/>
	<path class="st0" d="M25.7,15.5c-0.4-1.1-0.7-2.8-0.7-3.9v-0.2h-5.5v0.2c0,1.1-0.3,2.9-0.7,3.9l-2.2,6.3c-0.3,0.8-0.5,2.2-0.5,3.1
		v13.8c0,0.3,0.2,0.5,0.5,0.5h11.3c0.3,0,0.5-0.2,0.5-0.5V24.8c0-0.8-0.2-2.3-0.5-3.1L25.7,15.5z"/>
</g>
</svg>
