<?xml version="1.0" encoding="utf-8"?>
<!-- Generator: Adobe Illustrator 21.1.0, SVG Export Plug-In . SVG Version: 6.00 Build 0)  -->
<svg version="1.1" id="Capa_1" xmlns="http://www.w3.org/2000/svg" xmlns:xlink="http://www.w3.org/1999/xlink" x="0px" y="0px"
	 viewBox="0 0 160.1 157.2" style="enable-background:new 0 0 160.1 157.2;" xml:space="preserve">
<style type="text/css">
	.st0{fill:#666666;}
</style>
<g>
	<g>
		<path class="st0" d="M66.6,97.3c0-12.7-10.3-23-23-23c-12.7,0-23,10.3-23,23c0,12.7,10.3,23,23,23C56.2,120.3,66.6,110,66.6,97.3z
			 M25.7,97.3c0-9.8,8-17.8,17.8-17.8c9.8,0,17.8,8,17.8,17.8c0,9.8-8,17.8-17.8,17.8C33.7,115.1,25.7,107.1,25.7,97.3z"/>
		<path class="st0" d="M87,157.2L87,157.2c0-17.9-14.5-32.4-32.4-32.4H32.4C14.5,124.8,0,139.4,0,157.2l0,0h5.2l0,0
			c0-15,12.2-27.2,27.2-27.2h22.2c15,0,27.2,12.2,27.2,27.2l0,0l0,0H87z"/>
		<path class="st0" d="M116.1,88.1c24.3,0,44.1-19.8,44.1-44.1S140.4,0,116.1,0S72,19.8,72,44.1c0,7.9,2.1,15.6,6.1,22.4l-2.8,7.5
			L72.2,82l8.6-1.1l9.5-1.2C97.8,85.2,106.8,88.1,116.1,88.1z M80.1,75.8l3.8-10c-4.2-6.2-6.7-13.7-6.7-21.8
			c0-21.5,17.4-38.9,38.9-38.9s38.9,17.4,38.9,38.9s-17.4,38.9-38.9,38.9c-9.2,0-17.7-3.2-24.3-8.6L80.1,75.8z"/>
		<circle class="st0" cx="97.4" cy="44.1" r="5.3"/>
		<circle class="st0" cx="116.8" cy="44.1" r="5.3"/>
		<circle class="st0" cx="136.2" cy="44.1" r="5.3"/>
	</g>
</g>
</svg>
