<?xml version="1.0" encoding="utf-8"?>
<!-- Generator: Adobe Illustrator 21.1.0, SVG Export Plug-In . SVG Version: 6.00 Build 0)  -->
<svg version="1.1" id="Capa_1" xmlns="http://www.w3.org/2000/svg" xmlns:xlink="http://www.w3.org/1999/xlink" x="0px" y="0px"
	 viewBox="0 0 24.5 24.5" style="enable-background:new 0 0 24.5 24.5;" xml:space="preserve">
<style type="text/css">
	.st0{fill:#FFFFFF;}
</style>
<g transform="translate(0,-952.36218)">
	<path class="st0" d="M1.3,954.7c-0.4,0-0.8,0.3-0.8,0.8s0.3,0.8,0.8,0.8h2.4l2.6,12.4c0.1,0.5,0.4,0.9,0.8,0.9h12.7
		c0.4,0,0.8-0.4,0.8-0.8c0-0.4-0.4-0.8-0.8-0.8H7.7l-0.3-1.5h13.4c0.3,0,0.7-0.3,0.7-0.6l1.8-7.6c0.1-0.4-0.3-0.9-0.7-0.9H5.5
		l-0.4-1.9c-0.1-0.3-0.4-0.6-0.7-0.6H1.3z M5.8,958.8h15.9l-1.4,6.1H7.1L5.8,958.8z M9.7,970c-1.4,0-2.5,1.1-2.5,2.5
		s1.1,2.5,2.5,2.5s2.5-1.1,2.5-2.5S11.1,970,9.7,970z M17.3,970c-1.4,0-2.5,1.1-2.5,2.5s1.1,2.5,2.5,2.5s2.5-1.1,2.5-2.5
		S18.7,970,17.3,970z M9.7,971.5c0.6,0,1,0.4,1,1s-0.4,1-1,1c-0.6,0-1-0.4-1-1C8.6,972,9.1,971.5,9.7,971.5z M17.3,971.5
		c0.6,0,1,0.4,1,1s-0.4,1-1,1c-0.6,0-1-0.4-1-1C16.3,972,16.7,971.5,17.3,971.5z"/>
</g>
</svg>
