<?xml version="1.0" encoding="utf-8"?>
<!-- Generator: Adobe Illustrator 21.1.0, SVG Export Plug-In . SVG Version: 6.00 Build 0)  -->
<svg version="1.1" id="Capa_1" xmlns="http://www.w3.org/2000/svg" xmlns:xlink="http://www.w3.org/1999/xlink" x="0px" y="0px"
	 viewBox="0 0 52 52" style="enable-background:new 0 0 52 52;" xml:space="preserve">
<style type="text/css">
	.st0{fill:#FF8300;}
</style>
<g>
	<g>
		<path class="st0" d="M26,0C11.7,0,0,11.7,0,26c0,14.3,11.7,26,26,26c14.3,0,26-11.7,26-26C52,11.7,40.3,0,26,0z M26,48
			C13.9,48,4,38.1,4,26S13.9,4,26,4s22,9.9,22,22S38.1,48,26,48z"/>
		<path class="st0" d="M38.7,13.3c-0.8-0.8-2-0.8-2.8,0L26,23.2l-9.9-9.9c-0.8-0.8-2-0.8-2.8,0c-0.8,0.8-0.8,2,0,2.8l9.9,9.9
			l-9.9,9.9c-0.8,0.8-0.8,2,0,2.8c0.4,0.4,0.9,0.6,1.4,0.6s1-0.2,1.4-0.6l9.9-9.9l9.9,9.9c0.4,0.4,0.9,0.6,1.4,0.6s1-0.2,1.4-0.6
			c0.8-0.8,0.8-2,0-2.8L28.8,26l9.9-9.9C39.5,15.3,39.5,14.1,38.7,13.3z"/>
	</g>
</g>
</svg>
