<?xml version="1.0" encoding="utf-8"?>
<!-- Generator: Adobe Illustrator 21.1.0, SVG Export Plug-In . SVG Version: 6.00 Build 0)  -->
<svg version="1.1" id="Capa_1" xmlns="http://www.w3.org/2000/svg" xmlns:xlink="http://www.w3.org/1999/xlink" x="0px" y="0px"
	 viewBox="0 0 46 42.9" style="enable-background:new 0 0 46 42.9;" xml:space="preserve">
<style type="text/css">
	.st0{fill:#666666;}
</style>
<g transform="translate(0,-952.36218)">
	<path class="st0" d="M29.3,955.2c-0.3,0-0.5,0.2-0.7,0.4l-4.9,8H5.3c0,0-0.1,0-0.1,0c-0.4,0-0.8,0.4-0.8,0.8v18.6
		c0,0.5,0.4,0.8,0.8,0.8h9c1.6,4.9,6.2,8.4,11.6,8.4c6.8,0,12.2-5.5,12.2-12.2c0-1.6-0.3-3.2-0.9-4.6h3.5c0.6,0,1-0.8,0.7-1.3
		l-11.4-18.6C29.9,955.4,29.6,955.2,29.3,955.2z M29.3,957.7l9.9,16.1h-2.8c-2.1-3.5-6-5.9-10.5-5.9c-0.4,0-0.9,0-1.3,0.1v-2.7
		L29.3,957.7z M6.1,965.4H23v2.9c-5.3,1.3-9.3,6.1-9.3,11.9c0,0.7,0.1,1.4,0.2,2.1H6.1V965.4z M26,969.6c5.8,0,10.6,4.7,10.6,10.6
		s-4.7,10.6-10.6,10.6s-10.6-4.7-10.6-10.6S20.1,969.6,26,969.6z"/>
</g>
</svg>
