<?xml version="1.0" encoding="utf-8"?>
<!-- Generator: Adobe Illustrator 21.1.0, SVG Export Plug-In . SVG Version: 6.00 Build 0)  -->
<svg version="1.1" id="Capa_1" xmlns="http://www.w3.org/2000/svg" xmlns:xlink="http://www.w3.org/1999/xlink" x="0px" y="0px"
	 viewBox="0 0 24.5 24.5" style="enable-background:new 0 0 24.5 24.5;" xml:space="preserve">
<style type="text/css">
	.st0{fill:#919191;}
</style>
<g id="Sign_In">
	<g>
		<path class="st0" d="M22.8,1.5h-9.6c-0.4,0-0.7,0.3-0.7,0.7s0.3,0.7,0.7,0.7h8.9v19.3h-8.9c-0.4,0-0.7,0.3-0.7,0.7
			s0.3,0.7,0.7,0.7h9.6c0.4,0,0.7-0.3,0.7-0.7V2.2C23.5,1.8,23.2,1.5,22.8,1.5z"/>
		<path class="st0" d="M12.8,16.8c-0.3,0.3-0.3,0.7,0,1c0.3,0.3,0.7,0.3,1,0l4.7-4.8c0.3-0.3,0.3-0.7,0-1l-4.7-4.8
			c-0.3-0.3-0.7-0.3-1,0c-0.3,0.3-0.3,0.7,0,1l3.6,3.6H2.2c-0.4,0-0.7,0.3-0.7,0.7c0,0.4,0.3,0.7,0.7,0.7h14.2L12.8,16.8z"/>
	</g>
</g>
</svg>
