<?xml version="1.0" encoding="utf-8"?>
<!-- Generator: Adobe Illustrator 21.1.0, SVG Export Plug-In . SVG Version: 6.00 Build 0)  -->
<svg version="1.1" id="Capa_1" xmlns="http://www.w3.org/2000/svg" xmlns:xlink="http://www.w3.org/1999/xlink" x="0px" y="0px"
	 viewBox="0 0 165 40.9" style="enable-background:new 0 0 165 40.9;" xml:space="preserve">
<style type="text/css">
	.st0{fill:#FFFFFF;}
</style>
<g id="XMLID_102_">
	<g id="XMLID_401_">
		<path id="XMLID_402_" class="st0" d="M165,3.5c0,2-1.6,3.5-3.6,3.5c-2,0-3.6-1.6-3.6-3.5c0-1.9,1.6-3.5,3.6-3.5
			C163.4,0,165,1.6,165,3.5z M158.7,3.5c0,1.6,1.2,2.8,2.7,2.8c1.5,0,2.7-1.2,2.7-2.8c0-1.6-1.1-2.8-2.7-2.8
			C159.9,0.7,158.7,2,158.7,3.5z M160.9,5.3H160V1.8c0.3-0.1,0.8-0.1,1.3-0.1c0.7,0,1,0.1,1.2,0.3c0.2,0.1,0.3,0.4,0.3,0.8
			c0,0.4-0.3,0.7-0.7,0.8v0c0.3,0.1,0.5,0.4,0.6,0.9c0.1,0.5,0.2,0.7,0.3,0.9h-0.9c-0.1-0.1-0.2-0.4-0.3-0.9
			c-0.1-0.4-0.3-0.6-0.7-0.6h-0.4V5.3z M160.9,3.4h0.4c0.4,0,0.8-0.1,0.8-0.5c0-0.3-0.2-0.5-0.7-0.5c-0.2,0-0.4,0-0.4,0V3.4z"/>
	</g>
	<g id="XMLID_158_">
		<g id="XMLID_383_">
			<path id="XMLID_399_" class="st0" d="M15.3,10.7v4.6H5.8V21h10.6v4.6H0.2V1h15.7v4.6H5.8v5.1H15.3z"/>
			<path id="XMLID_397_" class="st0" d="M18.1,25.4l0.1-4.3c1.9,0.9,4.3,1.3,6.4,1.3c1.4,0,3.6-0.3,4.3-0.8c0.7-0.5,1.1-1.9,1.1-2.7
				c0-0.7-0.3-1.3-0.9-1.8c-0.6-0.5-1.7-1-3.2-1.5c-4.6-1.5-6.9-3.9-6.9-7.1c0-2.1,0.7-4.3,2.3-5.6c1.7-1.4,3.3-2,6-2.3
				c2.4-0.2,5.5,0.3,7.3,1.1l-0.6,3.4c-3.3-0.7-7.8-1.5-9.3,0.8c-0.5,0.8-0.5,2.1,0.9,2.9c2.1,1.1,2.6,1,4.9,1.9
				c2.2,0.9,3.3,2.1,4.1,3.4c0.9,1.4,1,2.8,1,4.6c0,2.2-0.9,4-2.6,5.4c-1.7,1.4-4.2,2.1-7.3,2.1C23.1,26,19.7,25.9,18.1,25.4z"/>
			<path id="XMLID_395_" class="st0" d="M53.9,20.6l0.9,4.3c-1.6,0.7-3.8,1.1-6.4,1.1c-4,0-5.9-1.1-8.2-3.3
				c-2.3-2.2-3.5-5.1-3.5-8.8c0-3.8,1.3-6.9,3.8-9.2c2.5-2.3,5.1-3.3,8.4-3.5c2.7-0.2,4.7,0.4,6.2,1.1l-1.1,4.3
				c-1.5-0.6-3.1-0.9-4.8-1c-1.5,0-3.1,0.7-4.5,2.1c-1.4,1.4-2.2,3.3-2.2,5.8c0,2.4,0.7,4.3,2.1,5.7c1.4,1.4,2.1,2.1,4.6,2.1
				C50.9,21.4,52.5,21.2,53.9,20.6z"/>
			<path id="XMLID_392_" class="st0" d="M77.5,13c0,3.9-1,7.1-3.1,9.4c-2.1,2.4-4.8,3.6-8.2,3.6c-3.3,0-5.9-1.2-7.9-3.5
				c-2-2.4-3-5.4-3-9.1c0-3.8,1-6.9,3.1-9.3c2.1-2.4,4.8-3.7,8.1-3.7c3.3,0,6,1.2,8,3.5C76.5,6.3,77.5,9.3,77.5,13z M60.7,13.2
				c0,2.4,0.5,4.4,1.6,6c1,1.5,2.4,2.3,4.1,2.3c1.7,0,3.1-0.8,4.2-2.3c1-1.5,1.6-3.5,1.6-6c0-2.4-0.5-4.4-1.6-5.9
				c-1-1.6-2.4-2.3-4.1-2.3c-1.7,0-3.1,0.8-4.1,2.3C61.2,8.8,60.7,10.8,60.7,13.2z"/>
			<path id="XMLID_390_" class="st0" d="M93.6,25.6h-6.5L80.8,0.5h6.3c1.8,8.9,3,15.3,3.6,19.1h0.1c0.3-2.4,1.6-8.8,3.9-19.1h6.4
				c2,10.2,3.2,16.5,3.5,19h0.1c0.2-1.9,1.5-8.2,3.7-19h6l-6.9,25.1h-6.4c-1.7-8.2-2.7-12.9-2.9-14.1c-0.2-1.1-0.4-2.7-0.6-4.7h-0.1
				c-0.5,2.8-1,5.4-1.5,7.7L93.6,25.6z"/>
			<path id="XMLID_388_" class="st0" d="M115.6,0.5h5.5v25.8h-5.5V0.5z"/>
			<path id="XMLID_386_" class="st0" d="M125.2,26.5V1h5.5v20.5h9.9v4.9H125.2z"/>
			<path id="XMLID_384_" class="st0" d="M141.5,26.5V1h5.5v20.5h9.9v4.9H141.5z"/>
		</g>
		<g id="XMLID_161_">
			<path id="XMLID_381_" class="st0" d="M5.5,36.4H1.8v2.9H6v1.5H0v-9.9h5.8v1.5h-4v2.6h3.7V36.4z"/>
			<path id="XMLID_379_" class="st0" d="M14.9,40.8v-9.9H17l2.6,4.3c0.7,1.1,1.2,2.3,1.7,3.3h0c-0.1-1.3-0.2-2.6-0.2-4.1v-3.5h1.7
				v9.9h-1.9l-2.6-4.4c-0.6-1.1-1.3-2.3-1.8-3.4l0,0c0.1,1.3,0.1,2.6,0.1,4.2v3.5H14.9z"/>
			<path id="XMLID_377_" class="st0" d="M34.5,40.8l-3.2-9.9h2l1.4,4.5c0.4,1.3,0.7,2.4,1,3.6h0c0.3-1.2,0.6-2.4,1-3.6l1.4-4.5H40
				l-3.4,9.9H34.5z"/>
			<path id="XMLID_303_" class="st0" d="M49.6,38l-0.9,2.8h-1.9l3.2-9.9h2.3l3.2,9.9h-1.9L52.8,38H49.6z M52.5,36.6l-0.8-2.4
				c-0.2-0.6-0.4-1.3-0.5-1.9h0c-0.1,0.6-0.3,1.3-0.5,1.9l-0.8,2.4H52.5z"/>
			<path id="XMLID_301_" class="st0" d="M64.3,38.8c0.6,0.3,1.5,0.6,2.4,0.6c1.2,0,1.8-0.5,1.8-1.4c0-0.8-0.5-1.2-1.8-1.6
				c-1.6-0.6-2.7-1.5-2.7-2.9c0-1.6,1.4-2.9,3.5-2.9c1.1,0,1.9,0.2,2.4,0.5l-0.4,1.5c-0.4-0.2-1-0.5-2-0.5c-1.1,0-1.6,0.6-1.6,1.2
				c0,0.8,0.6,1.1,1.9,1.6c1.7,0.6,2.6,1.5,2.6,2.9c0,1.6-1.2,3-3.8,3c-1,0-2.1-0.3-2.7-0.6L64.3,38.8z"/>
			<path id="XMLID_299_" class="st0" d="M84.9,36.4h-3.7v2.9h4.2v1.5h-6v-9.9h5.8v1.5h-4v2.6h3.7V36.4z"/>
			<path id="XMLID_297_" class="st0" d="M94.2,38.8c0.6,0.3,1.5,0.6,2.4,0.6c1.2,0,1.8-0.5,1.8-1.4c0-0.8-0.5-1.2-1.8-1.6
				C95.1,35.9,94,35,94,33.6c0-1.6,1.4-2.9,3.5-2.9c1.1,0,1.9,0.2,2.4,0.5l-0.4,1.5c-0.4-0.2-1-0.5-2-0.5c-1.1,0-1.6,0.6-1.6,1.2
				c0,0.8,0.6,1.1,1.9,1.6c1.7,0.6,2.6,1.5,2.6,2.9c0,1.6-1.2,3-3.8,3c-1,0-2.1-0.3-2.7-0.6L94.2,38.8z"/>
			<path id="XMLID_294_" class="st0" d="M119.7,31c0.6-0.1,1.5-0.2,2.8-0.2c1.3,0,2.3,0.3,2.9,0.8c0.6,0.5,1,1.3,1,2.2
				c0,0.9-0.3,1.7-0.9,2.3c-0.7,0.7-1.9,1.1-3.1,1.1c-0.3,0-0.6,0-0.9-0.1v3.7h-1.8V31z M121.5,35.6c0.2,0.1,0.5,0.1,0.9,0.1
				c1.4,0,2.2-0.7,2.2-1.8c0-1.1-0.8-1.7-2-1.7c-0.5,0-0.9,0-1,0.1V35.6z"/>
			<path id="XMLID_225_" class="st0" d="M140.8,36.4h-3.7v2.9h4.2v1.5h-6v-9.9h5.8v1.5h-4v2.6h3.7V36.4z"/>
			<path id="XMLID_203_" class="st0" d="M152.3,32.4h-2.8v-1.5h7.5v1.5h-2.9v8.4h-1.8V32.4z"/>
		</g>
	</g>
</g>
</svg>
