<?xml version="1.0" encoding="utf-8"?>
<!-- Generator: Adobe Illustrator 21.1.0, SVG Export Plug-In . SVG Version: 6.00 Build 0)  -->
<svg version="1.1" id="Capa_1" xmlns="http://www.w3.org/2000/svg" xmlns:xlink="http://www.w3.org/1999/xlink" x="0px" y="0px"
	 viewBox="0 0 148.5 148.8" style="enable-background:new 0 0 148.5 148.8;" xml:space="preserve">
<style type="text/css">
	.st0{fill:#49669E;}
</style>
<g>
	<path class="st0" d="M21.6,27.9c0,0,0.1-0.3,2.5-1.5c2-1,4.5-1.1,4.5-1.1L43.2,25c0,0,5,0.2,7.2,5c1.4,2.9,0.4,6.4,0.4,6.4
		l-6.1,46.2c0,0-0.5,4.3,1.7,4c2.2-0.4,4.1-5.3,4.1-5.3l21.3-45.1c0,0,3.6-6.9,6.9-8.8c3.3-1.9,6.4-3.1,14.5-3.1
		c8,0,11.3,3.8,12.4,7.2c1.1,3.4-4.3,46.2-4.3,46.2s-1,7.8,0.5,7.8c1.9,0,3.8-5.4,3.8-5.4L129,32.4c0,0,1.4-2.6,2.7-3.6
		c1.5-1.1,2-1.3,2-1.3S113.9,0,78.5,0C40.2,0,21.6,27.9,21.6,27.9z"/>
	<path class="st0" d="M9.3,38v75.2c0,0-9.4-14.6-9.3-38.7C0.1,53.4,9.3,38,9.3,38z"/>
	<path class="st0" d="M33,134.1c0,0,5.2,0.3,12.9-3.1c5.2-2.3,8-7.6,8-7.6l19.3-39.9c0,0,1.1-0.9,1.7-0.8c1.1,0.2,1.3,2.1,1.3,2.1
		s-2.8,37.2-3,38.8c-0.2,1.6,0.8,5.4,2.8,7.3c1,1,3.4,2.3,6.3,2.9c2.8,0.7,14.4,3.1,23-3.7c5.4-4.3,7.8-9.3,7.8-9.3l34.5-58.7
		c0,0,6.6,31.3-16.3,59.5c-17.5,21.6-37.5,26.6-54.1,27.2C51.1,149.7,33,134.1,33,134.1z"/>
</g>
</svg>
