<?xml version="1.0" encoding="utf-8"?>
<!-- Generator: Adobe Illustrator 21.1.0, SVG Export Plug-In . SVG Version: 6.00 Build 0)  -->
<svg version="1.1" id="Capa_1" xmlns="http://www.w3.org/2000/svg" xmlns:xlink="http://www.w3.org/1999/xlink" x="0px" y="0px"
	 viewBox="0 0 489.4 493.4" style="enable-background:new 0 0 489.4 493.4;" xml:space="preserve">
<style type="text/css">
	.st0{fill:#FFFFFF;}
</style>
<g>
	<path class="st0" d="M68.7,92.4c0,0,0.3-1,8.3-4.8c6.8-3.3,15.1-3.8,15.1-3.8l48.2-0.8c0,0,16.7,0.8,24,16.5
		c4.5,9.7,1.4,21.4,1.4,21.4l-20.1,153.2c0,0-1.7,14.4,5.6,13.1c7.3-1.2,13.6-17.4,13.6-17.4l70.7-149.7c0,0,12-22.9,22.9-29.1
		c10.9-6.3,21.3-10.3,47.9-10.3c26.7,0,37.6,12.6,41.2,23.9c3.6,11.4-14.3,153.3-14.3,153.3s-3.4,25.9,1.5,25.9
		c6.2,0,12.7-18,12.7-18l77.2-158.1c0,0,4.7-8.6,8.8-11.9c4.8-3.8,6.8-4.3,6.8-4.3S374.8,0,257.3,0C130.5,0,68.7,92.4,68.7,92.4z"/>
	<path class="st0" d="M30.7,126v249.2c0,0-31.2-48.4-30.7-128.3C0.4,177.2,30.7,126,30.7,126z"/>
	<path class="st0" d="M106.6,444.6c0,0,17.2,0.9,42.6-10.3c17.1-7.5,26.5-25.3,26.5-25.3l63.9-132.4c0,0,3.6-3,5.7-2.7
		c3.6,0.5,4.2,7,4.2,7s-9.4,123.3-9.9,128.6c-0.5,5.4,2.6,17.8,9.4,24.3c3.3,3.2,11.4,7.5,20.8,9.7c9.3,2.2,47.8,10.2,76.4-12.4
		c17.8-14.1,26-30.8,26-30.8l114.3-194.5c0,0,21.8,103.7-54.1,197.2c-58.1,71.5-124.2,88.2-179.3,90.2
		C166.4,496.5,106.6,444.6,106.6,444.6z"/>
</g>
</svg>
