<?xml version="1.0" encoding="utf-8"?>
<!-- Generator: Adobe Illustrator 21.1.0, SVG Export Plug-In . SVG Version: 6.00 Build 0)  -->
<svg version="1.1" id="Capa_1" xmlns="http://www.w3.org/2000/svg" xmlns:xlink="http://www.w3.org/1999/xlink" x="0px" y="0px"
	 viewBox="0 0 30.4 22.4" style="enable-background:new 0 0 30.4 22.4;" xml:space="preserve">
<style type="text/css">
	.st0{fill:#6A6D9C;}
</style>
<path class="st0" d="M10.8,10.5h2.9v1.4h-2.9V10.5z M5.1,11.9H8v-1.4H5.1V11.9z M0,11.2c0,0.4,0.3,0.7,0.7,0.7h1.4v-1.4H0.7
	C0.3,10.5,0,10.8,0,11.2z M30.4,11.1C30.4,11,30.4,11,30.4,11.1c0-0.1,0-0.1,0-0.1c0,0,0,0,0-0.1c0,0,0,0,0-0.1c0,0-0.1-0.1-0.1-0.1
	L19.7,0.2c-0.3-0.3-0.7-0.3-1,0c-0.3,0.3-0.3,0.7,0,1l9.2,9.2H16.6v1.4h11.3l-9.2,9.2c-0.3,0.3-0.3,0.7,0,1c0.3,0.3,0.7,0.3,1,0l0,0
	l10.5-10.5c0,0,0.1-0.1,0.1-0.1c0,0,0,0,0-0.1c0,0,0,0,0-0.1c0,0,0,0,0-0.1c0,0,0,0,0-0.1C30.4,11.3,30.4,11.2,30.4,11.1z"/>
</svg>
