<?xml version="1.0" encoding="utf-8"?>
<!-- Generator: Adobe Illustrator 21.1.0, SVG Export Plug-In . SVG Version: 6.00 Build 0)  -->
<svg version="1.1" id="Capa_1" xmlns="http://www.w3.org/2000/svg" xmlns:xlink="http://www.w3.org/1999/xlink" x="0px" y="0px"
	 viewBox="0 0 30.4 22.4" style="enable-background:new 0 0 30.4 22.4;" xml:space="preserve">
<style type="text/css">
	.st0{fill:#6A6D9C;}
</style>
<path class="st0" d="M19.5,11.9h-2.9v-1.4h2.9V11.9z M25.3,10.5h-2.9v1.4h2.9V10.5z M30.4,11.2c0-0.4-0.3-0.7-0.7-0.7h-1.4v1.4h1.4
	C30,11.9,30.4,11.6,30.4,11.2z M0,11.3C0,11.4,0,11.4,0,11.3c0,0.1,0,0.1,0,0.1c0,0,0,0,0,0.1c0,0,0,0,0,0.1c0,0,0.1,0.1,0.1,0.1
	l10.5,10.5c0.3,0.3,0.7,0.3,1,0c0.3-0.3,0.3-0.7,0-1l-9.2-9.2h11.3v-1.4H2.5l9.2-9.2c0.3-0.3,0.3-0.7,0-1c-0.3-0.3-0.7-0.3-1,0l0,0
	L0.2,10.7c0,0-0.1,0.1-0.1,0.1c0,0,0,0,0,0.1c0,0,0,0,0,0.1c0,0,0,0,0,0.1c0,0,0,0,0,0.1C0,11.2,0,11.3,0,11.3z"/>
</svg>
