<?xml version="1.0" encoding="utf-8"?>
<!-- Generator: Adobe Illustrator 21.1.0, SVG Export Plug-In . SVG Version: 6.00 Build 0)  -->
<svg version="1.1" id="Capa_1" xmlns="http://www.w3.org/2000/svg" xmlns:xlink="http://www.w3.org/1999/xlink" x="0px" y="0px"
	 viewBox="0 0 24.5 24.5" style="enable-background:new 0 0 24.5 24.5;" xml:space="preserve">
<style type="text/css">
	.st0{fill:#FFFFFF;}
</style>
<path class="st0" d="M22.9,22.9c-0.8,0.8-2.1,0.8-2.9,0l-3.6-3.6c-1.5,1-3.3,1.5-5.2,1.5c-5.3,0-9.6-4.3-9.6-9.6s4.3-9.6,9.6-9.6
	c5.3,0,9.6,4.3,9.6,9.6c0,1.9-0.6,3.7-1.5,5.2l3.6,3.6C23.7,20.8,23.7,22.1,22.9,22.9z M11.1,4.3c-3.8,0-6.9,3.1-6.9,6.9
	S7.3,18,11.1,18c3.8,0,6.9-3.1,6.9-6.9C18,7.3,14.9,4.3,11.1,4.3z"/>
</svg>
