<?xml version="1.0" encoding="utf-8"?>
<!-- Generator: Adobe Illustrator 21.1.0, SVG Export Plug-In . SVG Version: 6.00 Build 0)  -->
<svg version="1.1" id="Capa_1" xmlns="http://www.w3.org/2000/svg" xmlns:xlink="http://www.w3.org/1999/xlink" x="0px" y="0px"
	 viewBox="0 0 43.9 43.9" style="enable-background:new 0 0 43.9 43.9;" xml:space="preserve">
<style type="text/css">
	.st0{fill:#FFFFFF;}
</style>
<g>
	<polygon class="st0" points="22.1,35.3 23.3,37.9 26.1,38.2 24.1,40.3 24.6,43.1 22.1,41.8 19.5,43.1 20,40.3 18,38.2 20.8,37.9 	
		"/>
	<polygon class="st0" points="13.8,36.9 14.8,38.9 17.1,39.2 15.5,40.8 15.8,43.1 13.8,42 11.8,43.1 12.2,40.8 10.6,39.2 12.8,38.9 
			"/>
	<polygon class="st0" points="30.3,36.9 31.3,38.9 33.5,39.2 32,40.8 32.3,43.1 30.3,42 28.3,43.1 28.7,40.8 27.1,39.2 29.3,38.9 	
		"/>
	<path class="st0" d="M32.3,13.7v-2.6l0,0C32.2,5.5,27.7,1,22.1,1S11.9,5.5,11.8,11.1l0,0v2.6h-2v17c0,1.3,1,2.3,2.3,2.3h20
		c1.3,0,2.3-1,2.3-2.3v-17L32.3,13.7z M23,24.5l0.9,3h-1.9l0,0h-1.9l0.9-3c-0.8-0.3-1.3-1.1-1.3-2c0-1.2,1-2.2,2.2-2.2
		s2.2,1,2.2,2.2C24.3,23.4,23.8,24.2,23,24.5L23,24.5z M29.2,13.7H14.9v-2.6l0,0c0.1-3.9,3.2-7,7.1-7s7.1,3.1,7.1,7l0,0V13.7z"/>
</g>
</svg>
