<?xml version="1.0" encoding="utf-8"?>
<!-- Generator: Adobe Illustrator 21.1.0, SVG Export Plug-In . SVG Version: 6.00 Build 0)  -->
<svg version="1.1" id="Capa_1" xmlns="http://www.w3.org/2000/svg" xmlns:xlink="http://www.w3.org/1999/xlink" x="0px" y="0px"
	 viewBox="0 0 46 42.9" style="enable-background:new 0 0 46 42.9;" xml:space="preserve">
<style type="text/css">
	.st0{fill:#666666;}
</style>
<g>
	<path class="st0" d="M39.8,21.7C39.8,21.7,39.8,21.7,39.8,21.7c-0.7-1-2.3-1.6-4.7-1.7c-0.5,0-1,0-1.6,0l0,0l0,0
		c-3.5,0.1-7.8,0.9-12.3,2.4c-4.4,1.5-8.4,3.4-11.3,5.4l0,0c-0.5,0.3-0.9,0.7-1.3,1C6.9,30.2,6,31.6,6,32.9l0,0l0,0c0,0,0,0,0,0
		c0,0,0,0,0,0c0,0.2,0,0.6,0.1,0.9c0.5,1.6,2.7,2.6,6.2,2.6h0c3.6,0,8.1-1,12.7-2.5C33.4,31,41.3,26,40.2,22.4
		C40.1,22.2,40,21.9,39.8,21.7z M34,21c-0.1,0.1-0.1,0.1-0.2,0.2c-0.1,0.1-0.2,0.2-0.3,0.3c-0.1,0.1-0.1,0.1-0.2,0.2
		c-0.1,0.1-0.2,0.2-0.3,0.3c-0.1,0.1-0.2,0.1-0.2,0.2c-0.1,0.1-0.3,0.2-0.4,0.3c-0.1,0.1-0.1,0.1-0.2,0.2c-0.2,0.1-0.3,0.2-0.5,0.3
		c0,0-0.1,0.1-0.1,0.1c-0.2,0.1-0.5,0.3-0.7,0.4c-0.1,0-0.1,0.1-0.2,0.1c-0.2,0.1-0.3,0.2-0.5,0.3c-0.1,0.1-0.2,0.1-0.3,0.2
		c-0.2,0.1-0.3,0.2-0.5,0.3c-0.1,0.1-0.2,0.1-0.3,0.2c-0.2,0.1-0.3,0.2-0.5,0.2c-0.1,0.1-0.2,0.1-0.3,0.2c-0.2,0.1-0.3,0.2-0.5,0.2
		c-0.1,0.1-0.2,0.1-0.4,0.2c-0.2,0.1-0.3,0.1-0.5,0.2c-0.1,0.1-0.2,0.1-0.4,0.2c-0.2,0.1-0.3,0.1-0.5,0.2c-0.1,0.1-0.2,0.1-0.4,0.2
		c-0.2,0.1-0.4,0.1-0.5,0.2c-0.1,0-0.2,0.1-0.4,0.1c-0.2,0.1-0.4,0.2-0.6,0.2c-0.1,0-0.2,0.1-0.3,0.1c-0.3,0.1-0.6,0.2-0.9,0.3
		c-1.7,0.6-3.4,1-5.1,1.3c-2,0.4-3.9,0.6-5.6,0.6c-0.3,0-0.5,0-0.7,0c-0.1,0-0.1,0-0.2,0c-0.2,0-0.5,0-0.7,0c0,0-0.1,0-0.1,0
		c-0.1,0-0.2,0-0.4,0c0.1-0.1,0.2-0.2,0.3-0.2c0.1,0,0.2,0,0.4,0c0.1,0,0.1,0,0.2,0c0.2,0,0.5,0,0.7,0l0,0c0.5,0,1,0,1.5-0.1
		c2.4-0.2,5.2-0.7,8-1.5c0.5-0.1,1-0.3,1.5-0.5c0.3-0.1,0.6-0.2,0.8-0.3c0.1,0,0.2-0.1,0.3-0.1c0.2-0.1,0.4-0.1,0.6-0.2
		c0.1,0,0.2-0.1,0.3-0.1c0.2-0.1,0.3-0.1,0.5-0.2c0.1,0,0.2-0.1,0.3-0.1c0.2-0.1,0.3-0.1,0.5-0.2c0.1,0,0.2-0.1,0.3-0.1
		c0.1-0.1,0.3-0.1,0.4-0.2c0.1-0.1,0.2-0.1,0.3-0.2c0.1-0.1,0.3-0.1,0.4-0.2c0.1-0.1,0.2-0.1,0.3-0.2c0.1-0.1,0.3-0.1,0.4-0.2
		c0.1-0.1,0.2-0.1,0.3-0.2c0.1-0.1,0.3-0.1,0.4-0.2c0.1-0.1,0.2-0.1,0.3-0.2c0.1-0.1,0.2-0.1,0.4-0.2c0.1-0.1,0.2-0.1,0.3-0.2
		c0.1-0.1,0.2-0.1,0.4-0.2c0.1-0.1,0.2-0.1,0.3-0.2c0.1-0.1,0.2-0.1,0.3-0.2c0.1-0.1,0.2-0.1,0.3-0.2c0.1-0.1,0.2-0.1,0.3-0.2
		c0.1-0.1,0.2-0.1,0.3-0.2c0.1-0.1,0.2-0.1,0.3-0.2c0.1-0.1,0.2-0.1,0.3-0.2c0.1-0.1,0.2-0.1,0.3-0.2c0.1-0.1,0.2-0.1,0.3-0.2
		c0.1-0.1,0.2-0.1,0.3-0.2c0.1-0.1,0.2-0.1,0.2-0.2c0.1-0.1,0.1-0.1,0.2-0.2c0.1,0,0.3,0,0.4,0C34.1,20.9,34.1,20.9,34,21z
		 M21.6,23.2c3.8-1.2,7.5-2,10.7-2.3c-0.2,0.1-0.3,0.2-0.5,0.3c0,0,0,0-0.1,0.1c-0.2,0.1-0.3,0.2-0.5,0.3c-0.1,0-0.1,0.1-0.2,0.1
		c-0.1,0.1-0.2,0.2-0.4,0.2c-0.1,0-0.2,0.1-0.2,0.1c-0.1,0.1-0.2,0.1-0.4,0.2c-0.1,0-0.2,0.1-0.2,0.1c-0.1,0.1-0.2,0.1-0.4,0.2
		c-0.1,0-0.2,0.1-0.3,0.1c-0.1,0.1-0.3,0.1-0.4,0.2c-0.1,0-0.2,0.1-0.2,0.1c-0.2,0.1-0.3,0.2-0.5,0.3c-0.1,0-0.1,0.1-0.2,0.1
		c-0.2,0.1-0.5,0.2-0.7,0.3c-0.1,0-0.1,0.1-0.2,0.1c-0.2,0.1-0.3,0.2-0.5,0.2c-0.1,0-0.2,0.1-0.3,0.1c-0.2,0.1-0.3,0.1-0.5,0.2
		c-0.1,0-0.2,0.1-0.3,0.1c-0.1,0.1-0.3,0.1-0.5,0.2c-0.1,0-0.2,0.1-0.3,0.1c-0.2,0.1-0.3,0.1-0.5,0.2c-0.1,0-0.2,0.1-0.3,0.1
		c-0.2,0.1-0.3,0.1-0.5,0.2c-0.1,0-0.2,0.1-0.3,0.1c-0.3,0.1-0.5,0.1-0.8,0.2c-2.9,0.9-5.7,1.8-8.3,1.8c0,0,0,0,0,0
		c-0.6,0-1.2,0.2-1.8,0.2c-0.2,0-0.4,0-0.7,0c0,0,0,0-0.1,0C14.3,26,17.8,24.4,21.6,23.2z M9.2,29.5c0.1,0,0.2,0,0.3,0
		c0.1,0,0.2,0,0.3,0.1c0.1,0,0.3,0,0.4,0.1c0.1,0,0.2,0,0.3,0c0.2,0,0.4,0,0.5,0c0.1,0,0.2,0.1,0.3,0.1c0.3,0,0.6,0.1,0.8,0.1
		c0,0,0,0,0,0c2.4,0,5.2-0.5,8.1-1.2c0.1,0,0.1-0.1,0.2-0.1c0.2-0.1,0.5-0.1,0.7-0.2c0.3-0.1,0.7-0.2,1-0.3c0.3-0.1,0.7-0.2,1-0.3
		c0.3-0.1,0.7-0.2,1-0.3c0.1,0,0.2-0.1,0.3-0.1c0.2-0.1,0.4-0.2,0.6-0.2c0.1-0.1,0.3-0.1,0.4-0.2c0.2-0.1,0.4-0.1,0.6-0.2
		c0.1-0.1,0.3-0.1,0.4-0.2c0.2-0.1,0.3-0.1,0.5-0.2c0.1-0.1,0.3-0.1,0.4-0.2c0.2-0.1,0.3-0.1,0.5-0.2c0.1-0.1,0.3-0.1,0.4-0.2
		c0.2-0.1,0.3-0.1,0.5-0.2c0.1-0.1,0.3-0.1,0.4-0.2c0.1-0.1,0.3-0.2,0.4-0.2c0.1-0.1,0.3-0.1,0.4-0.2c0.1-0.1,0.3-0.2,0.4-0.2
		c0.1-0.1,0.3-0.1,0.4-0.2c0.1-0.1,0.3-0.2,0.4-0.2c0.1-0.1,0.2-0.1,0.4-0.2c0.1-0.1,0.3-0.2,0.4-0.2c0.1-0.1,0.2-0.2,0.3-0.2
		c0.1-0.1,0.2-0.2,0.4-0.2c0.1-0.1,0.2-0.2,0.3-0.2c0.1-0.1,0.2-0.2,0.3-0.2c0.1-0.1,0.2-0.2,0.3-0.2c0.1-0.1,0.2-0.2,0.3-0.2
		c0.1-0.1,0.2-0.2,0.3-0.2c0.1-0.1,0.2-0.2,0.3-0.2c0.1-0.1,0.2-0.2,0.2-0.2c0.1-0.1,0.2-0.2,0.3-0.2c0.1-0.1,0.1-0.2,0.2-0.2
		c0.1-0.1,0.1-0.1,0.2-0.2c1.7,0.1,2.9,0.5,3.6,1.1c0,0,0,0,0,0c0,0-0.1,0.1-0.1,0.1c0,0.1-0.1,0.1-0.2,0.2c0,0-0.1,0.1-0.1,0.1
		c0,0.1-0.1,0.1-0.1,0.2c0,0-0.1,0.1-0.1,0.1c-0.1,0.1-0.1,0.1-0.2,0.2c0,0-0.1,0.1-0.1,0.1c-0.1,0.1-0.1,0.1-0.2,0.2
		c-0.1,0-0.1,0.1-0.2,0.1c-0.1,0.1-0.1,0.1-0.2,0.2c-0.1,0-0.1,0.1-0.2,0.1c-0.1,0-0.1,0.1-0.2,0.1c-0.1,0-0.1,0.1-0.2,0.1
		c-0.1,0-0.1,0.1-0.2,0.1c-0.1,0-0.1,0.1-0.2,0.1c-0.1,0-0.1,0.1-0.2,0.1c-0.1,0-0.1,0.1-0.2,0.1c-0.1,0-0.1,0.1-0.2,0.1
		c-0.1,0-0.1,0.1-0.2,0.1c-0.1,0-0.1,0.1-0.2,0.1c-0.1,0-0.1,0.1-0.2,0.1c-0.1,0-0.1,0.1-0.2,0.1c-0.1,0-0.1,0.1-0.2,0.1
		c-0.1,0-0.1,0.1-0.2,0.1c-0.1,0-0.1,0.1-0.2,0.1c-0.1,0-0.2,0.1-0.2,0.1c-0.1,0-0.2,0.1-0.2,0.1c-0.1,0-0.2,0.1-0.2,0.1
		c-0.1,0-0.2,0.1-0.2,0.1c-0.1,0-0.2,0.1-0.2,0.1c-0.1,0-0.2,0.1-0.2,0.1c-0.1,0-0.2,0.1-0.2,0.1c-0.1,0-0.2,0.1-0.2,0.1
		c-0.1,0-0.2,0.1-0.3,0.1c-0.1,0-0.2,0.1-0.3,0.1c-0.1,0-0.2,0.1-0.3,0.1c-0.1,0-0.2,0.1-0.3,0.1c-0.1,0-0.2,0.1-0.3,0.1
		c-0.1,0-0.2,0.1-0.3,0.1c-0.1,0-0.2,0.1-0.3,0.1c-0.1,0-0.2,0.1-0.3,0.1c-0.1,0-0.2,0.1-0.3,0.1c-0.1,0-0.2,0.1-0.3,0.1
		c-0.1,0-0.2,0.1-0.3,0.1c-0.1,0-0.2,0.1-0.3,0.1c-0.1,0-0.2,0.1-0.3,0.1c-0.1,0-0.2,0.1-0.3,0.1c-0.1,0-0.2,0.1-0.3,0.1
		c-0.1,0-0.2,0.1-0.3,0.1C28.2,29,28.1,29,28,29c-0.1,0-0.2,0.1-0.3,0.1c-0.1,0-0.2,0.1-0.3,0.1c-0.1,0-0.2,0.1-0.3,0.1
		c-0.1,0-0.2,0.1-0.3,0.1c-0.1,0-0.2,0.1-0.3,0.1c-0.1,0-0.2,0.1-0.4,0.1c-0.1,0-0.2,0.1-0.3,0.1c-0.1,0-0.3,0.1-0.4,0.1
		c-0.1,0-0.2,0.1-0.2,0.1c-0.1,0.1-0.3,0.1-0.4,0.2c-0.1,0-0.1,0-0.2,0.1c-0.2,0.1-0.4,0.1-0.6,0.2c-0.4,0.1-0.8,0.2-1.1,0.4
		c-0.5,0.1-0.9,0.3-1.4,0.4c0,0-0.1,0-0.1,0c-3.8,1.1-7.5,1.6-10.6,1.6c-0.2,0-0.4,0-0.6,0c-0.1,0-0.1,0-0.2,0c-0.1,0-0.2,0-0.4,0
		c-0.1,0-0.1,0-0.2,0c-0.1,0-0.2,0-0.3,0c-0.1,0-0.2,0-0.2,0c-0.1,0-0.2,0-0.3,0c-0.1,0-0.1,0-0.2,0c-0.1,0-0.2,0-0.3,0
		c-0.1,0-0.1,0-0.2,0c-0.1,0-0.2,0-0.3,0c-0.1,0-0.1,0-0.2,0c-0.1,0-0.2,0-0.3-0.1c-0.1,0-0.1,0-0.2,0c0,0,0,0,0,0
		C7.1,31.7,7.9,30.6,9.2,29.5z M24.7,32.8c-4.5,1.5-9,2.3-12.4,2.3c-2.9,0-4.8-0.6-5.3-1.6c0.1,0,0.1,0,0.2,0c0.1,0,0.1,0,0.2,0
		c0.1,0,0.2,0,0.4,0.1c0,0,0.1,0,0.1,0c0.2,0,0.3,0,0.5,0.1c0,0,0.1,0,0.1,0c0.1,0,0.3,0,0.4,0c0.1,0,0.1,0,0.2,0c0.1,0,0.2,0,0.4,0
		c0.1,0,0.1,0,0.2,0c0.1,0,0.3,0,0.4,0c0.1,0,0.1,0,0.2,0c0.2,0,0.4,0,0.6,0l0,0c0.4,0,0.7,0,1.1,0c3.7-0.1,8-1,12.4-2.4
		c0.2-0.1,0.4-0.1,0.6-0.2c0.1,0,0.1-0.1,0.2-0.1c0.1,0,0.3-0.1,0.4-0.1c0.1,0,0.2-0.1,0.3-0.1c0.1,0,0.2-0.1,0.4-0.1
		c0.1,0,0.2-0.1,0.3-0.1c0.1,0,0.2-0.1,0.4-0.1c0.1,0,0.2-0.1,0.3-0.1c0.1,0,0.2-0.1,0.3-0.1c0.1,0,0.2-0.1,0.3-0.1
		c0.1,0,0.2-0.1,0.3-0.1c0.1,0,0.2-0.1,0.3-0.1c0.1,0,0.2-0.1,0.3-0.1c0.1,0,0.2-0.1,0.3-0.1c0.1,0,0.2-0.1,0.3-0.1
		c0.1,0,0.2-0.1,0.3-0.1c0.1,0,0.2-0.1,0.3-0.1c0.1,0,0.2-0.1,0.3-0.1c0.1,0,0.2-0.1,0.3-0.1c0.1,0,0.2-0.1,0.3-0.1
		c0.1,0,0.2-0.1,0.3-0.1c0.1,0,0.2-0.1,0.3-0.1c0.1-0.1,0.2-0.1,0.3-0.2c0.1,0,0.2-0.1,0.2-0.1c0.1-0.1,0.2-0.1,0.3-0.2
		c0.1,0,0.2-0.1,0.2-0.1c0.1-0.1,0.2-0.1,0.3-0.2c0.1,0,0.1-0.1,0.2-0.1c0.1-0.1,0.2-0.1,0.3-0.2c0.1,0,0.1-0.1,0.2-0.1
		c0.1-0.1,0.2-0.1,0.3-0.2c0,0,0.1-0.1,0.1-0.1c0.2-0.1,0.3-0.2,0.5-0.3c0,0,0,0,0.1,0c0.1-0.1,0.3-0.2,0.4-0.2
		c0.1,0,0.1-0.1,0.2-0.1c0.1-0.1,0.2-0.1,0.3-0.2c0.1,0,0.1-0.1,0.2-0.1c0.1-0.1,0.2-0.1,0.3-0.2c0.1,0,0.1-0.1,0.2-0.1
		c0.1-0.1,0.2-0.1,0.2-0.2c0.1,0,0.1-0.1,0.2-0.1c0.1-0.1,0.2-0.1,0.2-0.2c0.1,0,0.1-0.1,0.2-0.1c0.1-0.1,0.1-0.1,0.2-0.2
		c0.1,0,0.1-0.1,0.2-0.1c0.1-0.1,0.1-0.1,0.2-0.2c0.1,0,0.1-0.1,0.2-0.1c0.1-0.1,0.1-0.1,0.2-0.2c0.1,0,0.1-0.1,0.2-0.1
		c0.1-0.1,0.1-0.1,0.2-0.2c0.1,0,0.1-0.1,0.2-0.1c0.1-0.1,0.1-0.1,0.2-0.2c0,0,0.1-0.1,0.1-0.1c0.1-0.1,0.1-0.1,0.2-0.2
		c0,0,0.1-0.1,0.1-0.1c0.1-0.1,0.1-0.1,0.2-0.2c0,0,0.1-0.1,0.1-0.1c0.1-0.1,0.1-0.1,0.2-0.2c0,0,0.1-0.1,0.1-0.1c0,0,0,0,0,0
		C39.8,25.2,34.2,29.7,24.7,32.8z"/>
	<path class="st0" d="M43.6,21.3c-0.4-1.1-1.1-2-2.3-2.6c-0.3-0.4-0.7-0.8-1.2-1.2L40,17c-0.3-1-1-1.7-2-2.4l-0.8-2.6
		c-0.3-0.9-0.9-1.6-1.7-2.1l-0.4-1.1c-0.3-0.8-1-2-3-2.7c-2.4-3-9.8-2.5-16.2-0.4c-6.4,2.1-12.7,6.2-12.8,10c-1.1,1.8-1.1,3.1-0.8,4
		l0.4,1.1c-0.3,1-0.4,1.9-0.1,2.7L3.4,26c-0.4,1.1-0.5,2.1-0.2,3.1l0.2,0.5c-0.2,0.6-0.3,1.1-0.3,1.7c-0.5,1.2-0.6,2.4-0.3,3.5
		c0.8,2.5,3.8,3.9,8.4,4.1c0.4,0,0.8,0,1.2,0c4,0,8.8-0.8,13.5-2.4c5.3-1.7,10-4.2,13.3-6.9C42.9,26.7,44.5,23.7,43.6,21.3z
		 M34.5,12.2c0.2,0.2,0.4,0.4,0.4,0.6l0.8,2.4c-3.8-1-9.9-0.4-16.1,1.7c-6.3,2.1-11.5,5.2-14,8.3l-0.8-2.4c-0.1-0.2-0.1-0.5,0-0.8
		c1.5-3.1,7-6.6,13.6-8.8C25,11,31.5,10.6,34.5,12.2z M5.5,28.5l0-0.1c-0.2-0.5-0.1-1.1,0.3-1.8c0-0.1,0.1-0.2,0.1-0.3
		c2.1-3.1,7.5-6.4,14-8.5c6.5-2.1,12.8-2.7,16.3-1.5c0.1,0.1,0.1,0.1,0.2,0.2c0.7,0.4,1.1,0.8,1.3,1.3l0,0.1
		c-4-1.1-10.6-0.5-17.3,1.7C13.7,21.8,8,25.2,5.5,28.5z M5.8,29.6C5.8,29.6,5.8,29.6,5.8,29.6c2.1-3.4,7.9-7,14.9-9.3
		c7-2.3,13.7-2.8,17.4-1.5l0,0.1c0,0,0,0.1,0,0.1c-4.3-0.8-10.7-0.1-17.2,2c-6.7,2.2-12.2,5.4-15.2,8.7C5.8,29.7,5.8,29.7,5.8,29.6z
		 M8.2,12.2c2.1-1.6,5.1-3.1,8.4-4.2c7.5-2.5,12.9-1.7,13.7-0.2c0.2,0.3,0.5,0.5,0.8,0.5c0,0,0.1,0,0.1,0.1c0.3,0.1,0.5,0.2,0.8,0.4
		C32,8.8,32,9,31.9,9.1c-0.1,0-0.4,0.1-1.3-1c0,0-0.1-0.1-0.1,0c-0.1,0-0.1,0-0.1,0.1c0,0-0.2,0.4-0.5,0.5c-0.3,0.1-0.8-0.1-1.6-1.1
		c0,0-0.1-0.1-0.2,0c-0.1,0-0.1,0.1-0.1,0.1c0,0-0.1,0.8-0.6,1c-0.4,0.1-0.9-0.2-1.6-0.9c0,0-0.1-0.1-0.1,0s-0.1,0.1-0.1,0.1
		c0,0-0.3,1-1,1.2c-0.5,0.1-1.1-0.2-1.9-0.9c0,0-0.1-0.1-0.1,0s-0.1,0.1-0.1,0.1c0,0-0.4,1.2-1.2,1.4c-0.5,0.1-1.1-0.1-1.8-0.7
		c0,0-0.1,0-0.1,0c0,0-0.1,0.1-0.1,0.1c0,0-0.4,1.2-1.3,1.6c-0.6,0.2-1.3,0-2.2-0.6c0,0-0.1,0-0.1,0c0,0-0.1,0.1-0.1,0.1
		c0,0-0.3,1.6-1.3,2.1c-0.6,0.3-1.3,0.1-2.1-0.4c0,0-0.1,0-0.1,0s-0.1,0.1-0.1,0.1c0,0.4-0.3,1.4-0.8,1.6c-0.3,0.1-0.7-0.1-1.2-0.6
		c0,0-0.1-0.1-0.1,0c-0.1,0-0.1,0.1-0.1,0.1c-0.1,0.7-0.5,1.8-0.9,1.9c-0.3,0.1-0.5-0.2-0.7-0.5c0,0-0.1-0.1-0.2-0.1
		c-0.1,0-0.1,0.1-0.1,0.1C7.4,15,7.1,16,6.7,16.1c-0.2,0-0.3-0.1-0.6-0.3c0,0-0.1-0.1-0.2-0.1c-0.1,0-0.1,0.1-0.1,0.1
		c-0.2,1.1-0.5,2-0.6,2c0,0-0.1,0-0.2-0.2c0-0.1-0.1-0.1-0.2-0.1c-0.1,0-0.1,0.1-0.1,0.2c0,0.1,0.2,0.4,0.4,0.4c0,0,0,0,0,0
		C5.8,18,6,16.9,6.1,16.2c0.2,0.2,0.4,0.3,0.7,0.2c0.6-0.1,0.9-1.1,1-1.6C8,15,8.3,15.1,8.6,15.1c0.6-0.1,1-1.3,1.1-1.8
		c0.5,0.4,0.9,0.6,1.3,0.5c0.6-0.2,0.9-1.2,1-1.6c0.8,0.5,1.6,0.6,2.2,0.3c0.9-0.4,1.3-1.6,1.5-2.1c0.8,0.6,1.6,0.7,2.3,0.5
		c0.9-0.3,1.3-1.1,1.5-1.5c0.7,0.6,1.3,0.8,1.9,0.6c0.8-0.2,1.2-1,1.3-1.4c0.8,0.7,1.4,1,2,0.8c0.6-0.2,1-0.8,1.1-1.2
		C26.4,8.8,27,9,27.4,8.9c0.4-0.1,0.6-0.6,0.7-0.9c0.7,0.7,1.2,1,1.7,0.9c0.3-0.1,0.5-0.3,0.6-0.5c0.7,0.7,1.2,1,1.5,0.9
		c0.2-0.1,0.3-0.3,0.3-0.5c0.3,0.2,0.5,0.4,0.6,0.7l0.4,1.2c-3.6-0.9-9.3-0.4-15.2,1.6C12.2,14.3,7.4,17.2,5,20
		c0-0.1-0.1-0.1-0.2-0.2l-0.3-0.9c-0.2-0.7,0.2-1.6,0.7-2.2c0,0,0,0,0-0.1c0,0,0-0.1,0.1-0.1c0,0,0-0.1,0.1-0.1c0,0,0-0.1,0-0.1
		c0,0,0-0.1,0-0.1c0,0,0-0.1,0-0.1c0,0,0-0.1,0-0.1c0,0,0,0,0-0.1C5.4,15.2,6.1,13.8,8.2,12.2z M25.3,34.2c-5,1.7-10,2.5-13.9,2.3
		c-3.5-0.2-5.8-1.1-6.3-2.5c-0.2-0.6-0.1-1.3,0.3-2.1c0-0.1,0.1-0.2,0.1-0.3c2.3-3.5,8.4-7.3,15.8-9.7c7.4-2.4,14.6-3,18.5-1.6
		c0,0,0,0,0.1,0.1c0,0,0,0,0,0c0.1,0,0.1,0.1,0.2,0.1c0,0,0,0,0,0c0.8,0.4,1.2,0.9,1.4,1.5C42.4,25,36,30.7,25.3,34.2z"/>
</g>
</svg>
