<?xml version="1.0" encoding="utf-8"?>
<!-- Generator: Adobe Illustrator 21.1.0, SVG Export Plug-In . SVG Version: 6.00 Build 0)  -->
<svg version="1.1" id="Capa_1" xmlns="http://www.w3.org/2000/svg" xmlns:xlink="http://www.w3.org/1999/xlink" x="0px" y="0px"
	 viewBox="0 0 46 42.9" style="enable-background:new 0 0 46 42.9;" xml:space="preserve">
<style type="text/css">
	.st0{fill:#666666;}
</style>
<g>
	<g>
		<g>
			<path class="st0" d="M30.7,3.6h-16c-0.5,0-0.9,0.3-0.9,0.7v1.7h17.8V4.3C31.6,4,31.2,3.6,30.7,3.6z"/>
		</g>
		<g>
			<g>
				<path class="st0" d="M39.4,32.2V14.7c-0.5-3.3-4.4-5.3-6.9-6.3c0.4-0.1,0.6-0.4,0.6-0.7c0-0.5-0.5-0.9-1.2-0.9H13.4
					c-0.6,0-1.2,0.4-1.2,0.9c0,0.3,0.2,0.6,0.6,0.7c-2.5,1-6.4,3-6.9,6.3v17.5c0,0-0.6,6.4,6.6,7.3l0,0c0,0,0.1,0,0.2,0
					c0,0,0.1,0,0.1,0c0,0,0,0,0,0c1.1,0.1,5,0.5,10.1,0.5c2.9,0,6.2-0.1,9.5-0.5C40,38.8,39.4,32.2,39.4,32.2z M37.1,35.2
					c-0.8,1.9-2.4,2.9-4.9,3.2c-2.9,0.3-6,0.5-9.3,0.5c-5,0-8.8-0.4-9.8-0.5c0,0,0,0-0.1,0c0,0,0,0-0.1,0l0,0c0,0-0.1,0-0.1,0
					c-5.6-0.7-5.3-5.8-5.2-6c0,0,0-0.1,0-0.1V14.8c0.4-2.6,3.6-4.3,5.8-5.2h0c0,0,0,0,0.1,0c0.2-0.1,0.4-0.2,0.6-0.2
					c0.5-0.2,1.3-0.5,2.2-0.8h12.6c0.9,0.3,1.7,0.6,2.3,0.8c0.2,0.1,0.4,0.1,0.6,0.2c0.1,0,0.1,0,0.1,0h0c2.2,0.9,5.3,2.6,5.8,5.2
					v17.4c0,0,0,0.1,0,0.1C37.7,32.3,37.8,33.7,37.1,35.2z"/>
			</g>
		</g>
		<g>
			<g>
				<path class="st0" d="M12.4,18.5h-2.3v14.3c0,0,0,0,0,0.1c0,0.2-0.3,3.3,4.4,3.9c0,0,0.1,0,0.1,0l0,0c0,0,0,0,0,0c0,0,0,0,0.1,0
					c0.8,0.1,3.6,0.4,7.3,0.4l0,0c0.1,0,0.3,0,0.4,0c0.1,0,0.3,0,0.4,0l0,0c3.7,0,6.5-0.3,7.3-0.4c0,0,0,0,0.1,0c0,0,0,0,0,0l0,0
					c0,0,0.1,0,0.1,0c4.7-0.6,4.4-3.7,4.4-3.9c0,0,0,0,0-0.1V18.5H22.1"/>
			</g>
		</g>
	</g>
</g>
</svg>
