<?xml version="1.0" encoding="utf-8"?>
<!-- Generator: Adobe Illustrator 21.1.0, SVG Export Plug-In . SVG Version: 6.00 Build 0)  -->
<svg version="1.1" id="Capa_1" xmlns="http://www.w3.org/2000/svg" xmlns:xlink="http://www.w3.org/1999/xlink" x="0px" y="0px"
	 viewBox="0 0 24.5 24.5" style="enable-background:new 0 0 24.5 24.5;" xml:space="preserve">
<style type="text/css">
	.st0{fill:#72649C;}
</style>
<g id="Page-1">
	<g>
		<g id="Icons-Communication_8_" transform="translate(-85.000000, -126.000000)">
			<g id="phone_8_" transform="translate(85.000000, 126.000000)">
				<path id="Shape_8_" class="st0" d="M5.9,11c1.7,3.4,4.6,6.2,8.1,8.1l2.7-2.7c0.4-0.4,0.9-0.5,1.2-0.2c1.3,0.5,2.8,0.7,4.4,0.7
					c0.7,0,1.2,0.5,1.2,1.2v4.2c0,0.7-0.5,1.2-1.2,1.2c-11.5,0-20.8-9.3-20.8-20.8C1.5,2,2,1.5,2.7,1.5H7c0.7,0,1.2,0.5,1.2,1.2
					c0,1.5,0.2,2.9,0.7,4.4C9.1,7.5,9,8,8.7,8.3L5.9,11L5.9,11z"/>
			</g>
		</g>
	</g>
</g>
</svg>
