<?xml version="1.0" encoding="utf-8"?>
<!-- Generator: Adobe Illustrator 21.1.0, SVG Export Plug-In . SVG Version: 6.00 Build 0)  -->
<svg version="1.1" id="Capa_1" xmlns="http://www.w3.org/2000/svg" xmlns:xlink="http://www.w3.org/1999/xlink" x="0px" y="0px"
	 viewBox="0 0 24.5 24.5" style="enable-background:new 0 0 24.5 24.5;" xml:space="preserve">
<style type="text/css">
	.st0{fill:#919191;}
</style>
<g>
	<g>
		<g>
			<g>
				<path class="st0" d="M12.3,24.5C5.5,24.5,0,19,0,12.3S5.5,0,12.3,0s12.3,5.5,12.3,12.3S19,24.5,12.3,24.5z M12.3,1
					C6,1,1,6,1,12.3S6,23.5,12.3,23.5s11.3-5.1,11.3-11.3S18.5,1,12.3,1z"/>
			</g>
		</g>
		<g>
			<path class="st0" d="M14.7,17.4c-0.1-0.8,0-1.3,0-2.1c0.4-0.2,1-1.4,1.1-2.4c0.3,0,0.7-0.3,0.9-1.4c0.1-0.6-0.2-0.9-0.4-1
				c0.5-1.4,1.4-5.6-1.8-6.1c-0.3-0.6-1.2-0.9-2.2-0.9c-4.3,0.1-4.9,3.3-3.9,6.9c-0.2,0.1-0.4,0.4-0.4,1C8,12.7,8.5,12.9,8.8,13
				c0.1,1,0.8,2.2,1.1,2.4c0,0.7,0,1.3,0,2.1c-0.6,1.7-3.8,1.8-5.6,3.4c1.9,1.9,5,3.3,8.3,3.3s7.1-2.6,7.8-3.3
				C18.5,19.2,15.3,19.1,14.7,17.4z"/>
		</g>
	</g>
</g>
</svg>
