<?xml version="1.0" encoding="utf-8"?>
<!-- Generator: Adobe Illustrator 21.1.0, SVG Export Plug-In . SVG Version: 6.00 Build 0)  -->
<svg version="1.1" id="Capa_1" xmlns="http://www.w3.org/2000/svg" xmlns:xlink="http://www.w3.org/1999/xlink" x="0px" y="0px"
	 viewBox="0 0 165.6 93.4" style="enable-background:new 0 0 165.6 93.4;" xml:space="preserve">
<style type="text/css">
	.st0{fill:#7764A0;}
</style>
<g>
	<path class="st0" d="M82.8,18.7c-15.4,0-28,12.6-28,28s12.5,28,28,28s28-12.5,28-28S98.2,18.7,82.8,18.7z M82.8,65.9
		c-10.6,0-19.2-8.6-19.2-19.2s8.6-19.2,19.2-19.2s19.2,8.6,19.2,19.2S93.4,65.9,82.8,65.9z"/>
	<path class="st0" d="M161.9,37.9C150.3,26.5,119.3,0,82.8,0C46.3,0,15.3,26.5,3.7,37.9C1.3,40.2,0,43.3,0,46.7
		c0,3.3,1.3,6.5,3.7,8.8c11.6,11.4,42.6,37.9,79.1,37.9c36.5,0,67.5-26.5,79.1-37.9c2.4-2.3,3.7-5.5,3.7-8.8
		C165.6,43.3,164.3,40.2,161.9,37.9z M155.8,49.2c-10.9,10.6-39.7,35.4-73,35.4c-33.3,0-62.1-24.7-73-35.4c-0.7-0.7-1.1-1.6-1.1-2.6
		c0-1,0.4-1.9,1.1-2.6c10.9-10.6,39.7-35.4,73-35.4c33.3,0,62.1,24.7,73,35.4c0.7,0.7,1.1,1.6,1.1,2.6
		C156.9,47.6,156.5,48.6,155.8,49.2z"/>
</g>
</svg>
